# xmcd
#
# Track frame offsets:
#	150
#	17300
#	43575
#	56625
#	75550
#	90000
#	116575
#	129225
#	151275
#	174400
#	198850
#	215750
#	232225
#	246950
#	266850
#
# Disc length: 3992 seconds
#
# Revision: 0
# Processed by: cddbd v1.4PL0 Copyright (c) Steve Scherf et al.
# Submitted via: audiograbber 1.82.00
#
DISCID=bf0f960f
DTITLE=Various Artist - Bar-Room Blues Showdown
DYEAR=1900
DGENRE=
TTITLE0=Roll your daddy right
TTITLE1=Little red rooster
TTITLE2=Hoochie Coochie Man
TTITLE3=Hi heel sneakers
TTITLE4=I wish you would
TTITLE5=Sail On
TTITLE6=Early in the morning
TTITLE7=Checking on my baby
TTITLE8=Wine, wine, wine
TTITLE9=Night time
TTITLE10=Valerie
TTITLE11=All my money gone
TTITLE12=Leaving in the morning
TTITLE13=Baby what you want me to do
TTITLE14=Tina nu
EXTD=
EXTT0=
EXTT1=
EXTT2=
EXTT3=
EXTT4=
EXTT5=
EXTT6=
EXTT7=
EXTT8=
EXTT9=
EXTT10=
EXTT11=
EXTT12=
EXTT13=
EXTT14=
PLAYORDER=
